<svg fill="#000000" height="30" viewBox="0 0 30 30" width="30" xmlns="http://www.w3.org/2000/svg">
<path d="m 23.5,4 c 0.446489,9.12e-5 0.669532,0.5432953 0.348695,0.8538042 L 22.855178,5.8473217 C 22.408056,6.3130107 21.688911,5.5901999 22.15273,5.1448738 L 23.146247,4.1513563 C 23.239844,4.0546185 23.365395,3.9999998 23.5,4 Z M 6.5,4 C 6.0535109,4.0000908 5.8304676,4.5432951 6.151305,4.8538042 L 7.1448225,5.8473217 C 7.5919445,6.3130139 8.3149952,5.5939473 7.8472704,5.1448738 L 6.8537529,4.1513563 C 6.7601563,4.0546187 6.6346049,4 6.5,4 Z m 4,25 8,0 c 0.277,0 0.5,0.223 0.5,0.5 0,0.277 -0.223,0.5 -0.5,0.5 l -8,0 C 10.223,30 10,29.777 10,29.5 10,29.223 10.223,29 10.5,29 Z m 0,-3 8,0 c 0.277,0 0.5,0.223 0.5,0.5 0,0.277 -0.223,0.5 -0.5,0.5 l -8,0 C 10.223,27 10,26.777 10,26.5 10,26.223 10.223,26 10.5,26 Z m 4,-20 C 12.65174,6 11.004494,7.065085 9.8496094,8.7011719 8.6947245,10.337259 8,12.557418 8,15 8,17.442582 8.6947245,19.662741 9.8496094,21.298828 11.004494,22.934915 12.65174,24 14.5,24 16.34826,24 17.995506,22.934915 19.150391,21.298828 20.305275,19.662741 21,17.442582 21,15 21,12.557418 20.305275,10.337259 19.150391,8.7011719 17.995506,7.065085 16.34826,6 14.5,6 Z m 0,1 c 1.465448,0 2.817296,0.8370356 3.833984,2.2773438 C 19.350672,10.717652 20,12.748162 20,15 c 0,2.251838 -0.649328,4.282348 -1.666016,5.722656 -0.656611,0.930199 -1.457465,1.604772 -2.333984,1.96875 -0.0088,-1.190568 -0.02753,-2.298404 0.144531,-3.214844 0.198909,-1.059408 0.60869,-1.878446 1.625,-2.554687 C 18.189241,16.653053 17.997542,15.999328 17.5,16 c -0.09955,-1.42e-4 -0.194901,0.0298 -0.277344,0.08594 -1.238008,0.823759 -1.823239,1.972362 -2.054687,3.205078 C 14.952012,20.441195 14.992316,21.681706 15,22.963 14.760239,23.000107 14.265119,23 14,22.96289 14.0077,21.681596 14.047984,20.441192 13.832031,19.291015 13.600583,18.0583 13.015352,16.909697 11.777344,16.085938 11.694901,16.029796 11.599552,15.999857 11.5,16 c -0.497542,-6.72e-4 -0.689241,0.653053 -0.269531,0.921875 1.01631,0.676241 1.426091,1.495279 1.625,2.554687 C 13.027535,20.393002 13.00881,21.500838 13,22.691406 12.123481,22.327428 11.322627,21.652855 10.666016,20.722656 9.6493272,19.282348 9,17.251838 9,15 9,12.748162 9.6493272,10.717652 10.666016,9.2773438 11.682704,7.8370356 13.034552,7 14.5,7 Z m 10,7 2,0 c 0.277,0 0.5,0.223 0.5,0.5 0,0.277 -0.223,0.5 -0.5,0.5 l -2,0 C 24.223,15 24,14.777 24,14.5 24,14.223 24.223,14 24.5,14 Z M 15,0.5 l 0,2 C 15,2.777 14.777,3 14.5,3 14.223,3 14,2.777 14,2.5 l 0,-2 C 14,0.223 14.223,0 14.5,0 14.777,0 15,0.223 15,0.5 Z M 2.5,14 l 2,0 C 4.777,14 5,14.223 5,14.5 5,14.777 4.777,15 4.5,15 l -2,0 C 2.223,15 2,14.777 2,14.5 2,14.223 2.223,14 2.5,14 Z"/>
</svg>